# xmcd
#
# Track frame offsets: 
#        150
#        18735
#        39317
#        61501
#        83367
#        104850
#        125302
#        145356
#        166606
#        189051
#
# Disc length: 2748 seconds
#
# Revision: 0
# Processed by: cddbd v1.5.2PL0 Copyright (c) Steve Scherf et al.
# Submitted via: ExactAudioCopy v0.95b1
#
DISCID=720aba0a
DTITLE=Andy Montañez - El Godfather De La Salsa
DYEAR=2007
DGENRE=Salsa
TTITLE0=Mi Prueba De Fuego
TTITLE1=Me Sabe A Azúcar (Feat. Aymee Nuviola)
TTITLE2=Fruto Que Da (Feat. Hermán Olivera)
TTITLE3=En Las Nubes
TTITLE4=Montañez Pa' Rato (Feat. Andrés y Harold Montañez)
TTITLE5=Te Amo Tanto
TTITLE6=Nueva Generación (Feat. Héctor Giovani Rivera)
TTITLE7=Ese Amigo Soy Yo (Feat. Carlos Manuel)
TTITLE8=Celos (Feat. Juan García)
TTITLE9=Rubio, Blanco y Prieto (Feat. El Canito)
EXTD=
EXTT0=
EXTT1=
EXTT2=
EXTT3=
EXTT4=
EXTT5=
EXTT6=
EXTT7=
EXTT8=
EXTT9=
PLAYORDER=
